<svg xmlns="http://www.w3.org/2000/svg" width="1320" height="980" viewBox="0 0 1320 980" font-family="Helvetica,Arial,sans-serif">
<rect width="1320" height="980" fill="#FFFFFF"/>
<defs><marker id="arr" markerWidth="9" markerHeight="9" refX="7" refY="3" orient="auto"><path d="M0,0 L7,3 L0,6 Z" fill="#455A64"/></marker><marker id="arrd" markerWidth="9" markerHeight="9" refX="7" refY="3" orient="auto"><path d="M0,0 L7,3 L0,6 Z" fill="#90A4AE"/></marker></defs>
<text x="660.0" y="26" text-anchor="middle" font-size="20" font-weight="bold" fill="#263238">Bot Platform NextGen — Auth Architecture</text>
<rect x="120" y="430" width="1150" height="150" rx="14" fill="#F1F8E9" stroke="#2E7D32" stroke-width="2" stroke-dasharray="2 0"/>
<text x="136" y="452" font-size="15" font-weight="bold" fill="#2E7D32">botplatform-service  (NEW: auth provider)</text>
<line x1="402" y1="100" x2="563" y2="150" stroke="#455A64" stroke-width="1.6" marker-end="url(#arr)"/>
<line x1="660" y1="100" x2="660" y2="150" stroke="#455A64" stroke-width="1.6" marker-end="url(#arr)"/>
<line x1="918" y1="100" x2="757" y2="150" stroke="#455A64" stroke-width="1.6" marker-end="url(#arr)"/>
<line x1="694" y1="210" x2="761" y2="270" stroke="#455A64" stroke-width="1.6" marker-end="url(#arr)"/>
<line x1="554" y1="210" x2="340" y2="271" stroke="#455A64" stroke-width="1.6" marker-end="url(#arr)"/>
<line x1="625" y1="210" x2="321" y2="470" stroke="#455A64" stroke-width="1.6" marker-end="url(#arr)"/>
<line x1="811" y1="348" x2="828" y2="470" stroke="#455A64" stroke-width="1.6" marker-end="url(#arr)"/>
<rect x="791" y="393" width="58" height="16" fill="#FFFFFF" opacity="0.92"/>
<text x="820" y="405" text-anchor="middle" font-size="11" fill="#37474F">validate</text>
<line x1="324" y1="348" x2="710" y2="474" stroke="#455A64" stroke-width="1.6" marker-end="url(#arr)"/>
<rect x="488" y="395" width="58" height="16" fill="#FFFFFF" opacity="0.92"/>
<text x="517" y="407" text-anchor="middle" font-size="11" fill="#37474F">validate</text>
<line x1="567" y1="348" x2="763" y2="470" stroke="#455A64" stroke-width="1.6" marker-end="url(#arr)"/>
<rect x="636" y="393" width="58" height="16" fill="#FFFFFF" opacity="0.92"/>
<text x="665" y="405" text-anchor="middle" font-size="11" fill="#37474F">validate</text>
<line x1="940" y1="309" x2="970" y2="309" stroke="#455A64" stroke-width="1.6" marker-end="url(#arr)"/>
<rect x="877" y="293" width="157" height="16" fill="#FFFFFF" opacity="0.92"/>
<text x="955" y="305" text-anchor="middle" font-size="11" fill="#37474F">route + principal (mTLS)</text>
<line x1="661" y1="548" x2="913" y2="640" stroke="#455A64" stroke-width="1.6" marker-end="url(#arr)"/>
<rect x="743" y="578" width="89" height="16" fill="#FFFFFF" opacity="0.92"/>
<text x="787" y="590" text-anchor="middle" font-size="11" fill="#37474F">issue session</text>
<line x1="792" y1="560" x2="716" y2="640" stroke="#455A64" stroke-width="1.6" marker-end="url(#arr)"/>
<line x1="810" y1="672" x2="860" y2="672" stroke="#90A4AE" stroke-width="1.6" stroke-dasharray="6 5" marker-end="url(#arrd)"/>
<rect x="800" y="656" width="70" height="16" fill="#FFFFFF" opacity="0.92"/>
<text x="835" y="668" text-anchor="middle" font-size="11" fill="#37474F">cache miss</text>
<line x1="1087" y1="548" x2="1023" y2="640" stroke="#455A64" stroke-width="1.6" marker-end="url(#arr)"/>
<line x1="1016" y1="800" x2="1004" y2="704" stroke="#455A64" stroke-width="1.6" marker-end="url(#arr)"/>
<rect x="901" y="736" width="219" height="16" fill="#FFFFFF" opacity="0.92"/>
<text x="1010" y="748" text-anchor="middle" font-size="11" fill="#37474F">real-time users sync (bcrypt hash)</text>
<line x1="345" y1="660" x2="501" y2="548" stroke="#90A4AE" stroke-width="1.6" stroke-dasharray="6 5" marker-end="url(#arrd)"/>
<rect x="366" y="588" width="113" height="16" fill="#FFFFFF" opacity="0.92"/>
<text x="423" y="600" text-anchor="middle" font-size="11" fill="#37474F">JWT mint (future)</text>
<rect x="180" y="40" width="250" height="60" rx="9" fill="#ECEFF1" stroke="#37474F" stroke-width="1.6"/>
<text x="305" y="66" text-anchor="middle" font-size="15" font-weight="bold" fill="#263238">Legacy REST bot</text>
<text x="305" y="83" text-anchor="middle" font-size="13" font-weight="normal" fill="#263238">(SDK)</text>
<rect x="535" y="40" width="250" height="60" rx="9" fill="#ECEFF1" stroke="#37474F" stroke-width="1.6"/>
<text x="660" y="66" text-anchor="middle" font-size="15" font-weight="bold" fill="#263238">Admin / operator</text>
<text x="660" y="83" text-anchor="middle" font-size="13" font-weight="normal" fill="#263238">browser</text>
<rect x="890" y="40" width="250" height="60" rx="9" fill="#ECEFF1" stroke="#37474F" stroke-width="1.6"/>
<text x="1015" y="66" text-anchor="middle" font-size="15" font-weight="bold" fill="#263238">Native bot</text>
<text x="1015" y="83" text-anchor="middle" font-size="13" font-weight="normal" fill="#263238">(future)</text>
<rect x="410" y="150" width="500" height="60" rx="9" fill="#E3F2FD" stroke="#37474F" stroke-width="1.6"/>
<text x="660" y="176" text-anchor="middle" font-size="15" font-weight="bold" fill="#263238">Istio Gateway</text>
<text x="660" y="193" text-anchor="middle" font-size="13" font-weight="normal" fill="#263238">botpltfr-{site}.chat.f15.com</text>
<rect x="70" y="270" width="270" height="78" rx="9" fill="#FFF3E0" stroke="#37474F" stroke-width="1.6"/>
<text x="205" y="305" text-anchor="middle" font-size="15" font-weight="bold" fill="#263238">WebSocket server</text>
<text x="205" y="322" text-anchor="middle" font-size="13" font-weight="normal" fill="#263238">:8899</text>
<rect x="370" y="270" width="270" height="78" rx="9" fill="#FFF3E0" stroke="#37474F" stroke-width="1.6"/>
<text x="505" y="305" text-anchor="middle" font-size="15" font-weight="bold" fill="#263238">EventConsumer</text>
<text x="505" y="322" text-anchor="middle" font-size="13" font-weight="normal" fill="#263238">NATS to webhook</text>
<rect x="670" y="270" width="270" height="78" rx="9" fill="#FFF3E0" stroke="#37474F" stroke-width="1.6"/>
<text x="805" y="305" text-anchor="middle" font-size="15" font-weight="bold" fill="#263238">ApiGW</text>
<text x="805" y="322" text-anchor="middle" font-size="13" font-weight="normal" fill="#263238">routing · rate-limit · metrics</text>
<rect x="970" y="270" width="280" height="78" rx="9" fill="#FFF3E0" stroke="#37474F" stroke-width="1.6"/>
<text x="1110" y="305" text-anchor="middle" font-size="15" font-weight="bold" fill="#263238">Server  /api/v2/*</text>
<text x="1110" y="322" text-anchor="middle" font-size="13" font-weight="normal" fill="#263238">(legacy v2 REST today)</text>
<rect x="150" y="470" width="250" height="78" rx="9" fill="#E8F5E9" stroke="#2E7D32" stroke-width="1.6"/>
<text x="275" y="505" text-anchor="middle" font-size="15" font-weight="bold" fill="#263238">Web UI</text>
<text x="275" y="522" text-anchor="middle" font-size="13" font-weight="normal" fill="#263238">/dev-login · /changepwd</text>
<rect x="430" y="470" width="250" height="78" rx="9" fill="#E8F5E9" stroke="#2E7D32" stroke-width="1.6"/>
<text x="555" y="505" text-anchor="middle" font-size="15" font-weight="bold" fill="#263238">Login</text>
<text x="555" y="522" text-anchor="middle" font-size="13" font-weight="normal" fill="#263238">/api/v1/login · /v1/bot/login</text>
<rect x="710" y="470" width="250" height="90" rx="9" fill="#C8E6C9" stroke="#2E7D32" stroke-width="1.6"/>
<text x="835" y="502" text-anchor="middle" font-size="15" font-weight="bold" fill="#263238">/v1/auth/validate</text>
<text x="835" y="520" text-anchor="middle" font-size="13" font-weight="normal" fill="#263238">dual-token authority</text>
<text x="835" y="536" text-anchor="middle" font-size="13" font-weight="normal" fill="#263238">(Valkey-cached)</text>
<rect x="990" y="470" width="250" height="78" rx="9" fill="#E8F5E9" stroke="#2E7D32" stroke-width="1.6"/>
<text x="1115" y="505" text-anchor="middle" font-size="15" font-weight="bold" fill="#263238">Admin</text>
<text x="1115" y="522" text-anchor="middle" font-size="13" font-weight="normal" fill="#263238">/v1/admin/bots</text>
<rect x="560" y="640" width="250" height="64" rx="9" fill="#F3E5F5" stroke="#6A1B9A" stroke-width="1.6"/>
<text x="685" y="668" text-anchor="middle" font-size="15" font-weight="bold" fill="#263238">Valkey</text>
<text x="685" y="685" text-anchor="middle" font-size="13" font-weight="normal" fill="#263238">session cache</text>
<rect x="860" y="640" width="280" height="64" rx="9" fill="#F3E5F5" stroke="#6A1B9A" stroke-width="1.6"/>
<text x="1000" y="668" text-anchor="middle" font-size="15" font-weight="bold" fill="#263238">Mongo</text>
<text x="1000" y="685" text-anchor="middle" font-size="13" font-weight="normal" fill="#263238">credentials · sessions</text>
<rect x="150" y="660" width="300" height="64" rx="9" fill="#ECEFF1" stroke="#37474F" stroke-width="1.6"/>
<text x="300" y="688" text-anchor="middle" font-size="15" font-weight="bold" fill="#263238">auth-service</text>
<text x="300" y="705" text-anchor="middle" font-size="13" font-weight="normal" fill="#263238">human SSO · JWT signing</text>
<rect x="860" y="800" width="320" height="64" rx="9" fill="#ECEFF1" stroke="#37474F" stroke-width="1.6"/>
<text x="1020" y="828" text-anchor="middle" font-size="15" font-weight="bold" fill="#263238">Legacy v2 / Rocket.Chat</text>
<text x="1020" y="845" text-anchor="middle" font-size="13" font-weight="normal" fill="#263238">users collection</text>
<text x="16" y="75" font-size="12" font-weight="bold" fill="#90A4AE" transform="rotate(0)">Clients</text>
<text x="16" y="185" font-size="12" font-weight="bold" fill="#90A4AE" transform="rotate(0)">Gateway</text>
<text x="16" y="312" font-size="12" font-weight="bold" fill="#90A4AE" transform="rotate(0)">Edge / data plane</text>
<text x="16" y="676" font-size="12" font-weight="bold" fill="#90A4AE" transform="rotate(0)">Stores</text>
<line x1="180" y1="905" x2="220" y2="905" stroke="#455A64" stroke-width="1.6" marker-end="url(#arr)"/>
<text x="228" y="909" font-size="12" fill="#37474F">request / data flow</text>
<line x1="430" y1="905" x2="470" y2="905" stroke="#90A4AE" stroke-width="1.6" stroke-dasharray="6 5" marker-end="url(#arrd)"/>
<text x="478" y="909" font-size="12" fill="#37474F">future / cache-miss</text>
<rect x="690" y="896" width="16" height="16" rx="3" fill="#E8F5E9" stroke="#2E7D32"/>
<text x="714" y="909" font-size="12" fill="#37474F">new (we build)</text>
<rect x="860" y="896" width="16" height="16" rx="3" fill="#FFF3E0" stroke="#37474F"/>
<text x="884" y="909" font-size="12" fill="#37474F">existing component</text>
</svg>